<?xml version="1.0" encoding="UTF-8"?>
<svg id="Layer_2" data-name="Layer 2" xmlns="http://www.w3.org/2000/svg" viewBox="0 0 31.69 31.69">
  <defs>
    <style>
      .cls-1 {
        fill: #0071b5;
      }

      .cls-2 {
        fill: #f7941d;
      }

      .cls-3 {
        fill: #fff;
      }

      .cls-4 {
        fill: #ffc60b;
      }

      .cls-5 {
        fill: #86328c;
      }

      .cls-6 {
        fill: #b2d235;
      }

      .cls-7 {
        fill: #6dc065;
      }

      .cls-8 {
        fill: #27aae1;
      }
    </style>
  </defs>
  <g id="Layer_1-2" data-name="Layer 1">
    <circle class="cls-3" cx="15.84" cy="15.84" r="15.84"/>
    <g>
      <path class="cls-2" d="m21.2,9.33c.5-.95.8-2.05.8-3.22h-1.74c0,2.58-1.96,4.68-4.37,4.68s-4.36-2.09-4.36-4.68h-1.74c0,3.57,2.67,6.46,5.99,6.53-.5.95-.79,2.04-.79,3.21h0c0,2.58-1.95,4.68-4.37,4.68s-4.37-2.09-4.37-4.68h-1.74c0,3.61,2.73,6.54,6.1,6.54.04,0,.08,0,.13,0-.49.94-.77,2.02-.77,3.18h1.74c0-2.58,1.96-4.68,4.37-4.68s4.37,2.09,4.37,4.68h1.74c0-3.61-2.73-6.54-6.1-6.54-.04,0-.08,0-.13,0,.49-.94.77-2.02.77-3.17h0c0-2.58,1.95-4.68,4.37-4.68s4.37,2.09,4.37,4.68h1.74c0-3.57-2.67-6.46-5.99-6.53Z"/>
      <rect class="cls-1" x="25.49" y="16.52" width="1.66" height="1.78"/>
      <rect class="cls-4" x="4.57" y="13.58" width="1.66" height="1.78"/>
      <path class="cls-6" d="m21.34,14.47c.91,0,1.65.79,1.65,1.77s-.74,1.77-1.65,1.77-1.65-.79-1.65-1.77.74-1.77,1.65-1.77"/>
      <path class="cls-7" d="m10.61,14.2c.91,0,1.65.79,1.65,1.77s-.74,1.77-1.65,1.77-1.65-.79-1.65-1.77.74-1.77,1.65-1.77"/>
      <path class="cls-8" d="m15.89,4.51c.91,0,1.65.79,1.65,1.77s-.74,1.77-1.65,1.77-1.65-.79-1.65-1.77.74-1.77,1.65-1.77"/>
      <path class="cls-5" d="m16.07,23.65c.91,0,1.65.79,1.65,1.77s-.74,1.77-1.65,1.77-1.65-.79-1.65-1.77.74-1.77,1.65-1.77"/>
    </g>
  </g>
</svg>