<?xml version="1.0" encoding="UTF-8"?>
<svg id="Layer_2" data-name="Layer 2" xmlns="http://www.w3.org/2000/svg" viewBox="0 0 31.69 31.69">
  <defs>
    <style>
      .cls-1 {
        fill: #f9a01b;
      }

      .cls-2 {
        fill: #0071b5;
      }

      .cls-3 {
        fill: #fff;
      }

      .cls-4 {
        fill: #92278f;
      }

      .cls-5 {
        fill: #b2d235;
      }
    </style>
  </defs>
  <g id="Layer_1-2" data-name="Layer 1">
    <circle class="cls-3" cx="15.84" cy="15.84" r="15.84"/>
    <g>
      <rect class="cls-2" x="4.51" y="23.25" width="1.6" height="1.75"/>
      <rect class="cls-4" x="25.59" y="23.25" width="1.6" height="1.75"/>
      <path class="cls-1" d="m15.84,2.37c1.23,0,2.22,1.09,2.22,2.44s-1,2.44-2.22,2.44-2.23-1.09-2.23-2.44,1-2.44,2.23-2.44"/>
      <path class="cls-5" d="m24.68,7.63h0s0-.03,0-.05h0v-1.73c-4.78.03-8.66,4.26-8.71,9.51-.02,0-.03,0-.05,0-.02,0-.04,0-.06,0-.03-5.26-3.91-9.52-8.71-9.54v1.78s.01,0,.02,0c.03,4.59,2.99,8.42,6.93,9.33-.64,3.58-3.5,6.28-6.95,6.31v1.78c4.28-.02,7.83-3.42,8.56-7.89.07,0,.14.01.21.01.06,0,.12,0,.18-.01.72,4.49,4.28,7.9,8.57,7.93v-1.78c-3.46-.02-6.32-2.74-6.95-6.34,3.95-.9,6.91-4.72,6.95-9.3Zm-15.87.19c3.03.81,5.3,3.75,5.42,7.3-3.03-.81-5.3-3.75-5.42-7.3Zm8.8,7.31c.13-3.54,2.4-6.47,5.44-7.27-.13,3.54-2.4,6.47-5.44,7.27Z"/>
    </g>
  </g>
</svg>