<?xml version="1.0" encoding="UTF-8"?>
<svg id="Layer_2" data-name="Layer 2" xmlns="http://www.w3.org/2000/svg" viewBox="0 0 31.69 31.69">
  <defs>
    <style>
      .cls-1 {
        fill: #f7941d;
      }

      .cls-2 {
        fill: #fff;
      }

      .cls-3 {
        fill: #39b54a;
      }
    </style>
  </defs>
  <g id="Layer_1-2" data-name="Layer 1">
    <circle class="cls-2" cx="15.84" cy="15.84" r="15.84"/>
    <g>
      <path class="cls-3" d="m16.99,22.75c-.88-.3-1.86.15-2.2,1.03-.34.9.12,1.91,1.02,2.25.47.18.99.14,1.44-.09.23-.12.53-.03.65.2.12.23.03.53-.2.65-.4.21-.83.32-1.27.32-.32,0-.65-.06-.96-.18-1.19-.45-1.86-1.65-1.72-2.85-.44.17-.91.26-1.38.26s-.94-.08-1.39-.25c-.37-.14-.71-.34-1.02-.57.11.31.23.62.36.92,1.07,2.38,2.89,4.2,4.53,4.53t0,0c.2.05.76.14,1.13.09,0,0,.11-.01.12-.01,1.25-.12,2.3-.93,2.75-2.1.31-.82.28-1.71-.08-2.5-.35-.78-.98-1.38-1.78-1.69"/>
      <path class="cls-3" d="m8.02,15.1c-.44-.16-.91-.15-1.34.04-.42.19-.75.54-.91.97-.18.47-.14.99.09,1.44.13.23.04.52-.2.65-.07.04-.15.06-.22.06-.17,0-.34-.09-.42-.25-.37-.69-.42-1.5-.14-2.23.26-.68.76-1.21,1.42-1.51.45-.21.94-.27,1.42-.21-.33-.88-.34-1.86,0-2.78.14-.37.34-.71.57-1.02-.31.11-.61.23-.92.36-2.38,1.07-4.2,2.89-4.53,4.53,0,0,0,0,0,0-.04.2-.14.76-.08,1.14,0,0,.01.11.01.12.12,1.24.93,2.29,2.1,2.74.82.31,1.71.28,2.5-.08.78-.35,1.38-.98,1.69-1.78.3-.89-.15-1.86-1.03-2.2"/>
      <path class="cls-1" d="m15.46,20.65c2.61,0,4.72-2.12,4.72-4.72s-2.12-4.72-4.72-4.72-4.72,2.12-4.72,4.72,2.12,4.72,4.72,4.72"/>
      <path class="cls-3" d="m20.44,8.85c-.3-2.59-1.48-4.88-2.93-5.69-.18-.1-.69-.37-1.06-.43-.01,0-.11-.03-.12-.03-1.22-.26-2.46.19-3.24,1.17-1.11,1.4-.89,3.43.48,4.56.36.27.79.39,1.24.34.46-.05.88-.28,1.17-.65.29-.36.42-.82.37-1.28-.05-.46-.28-.88-.65-1.17-.39-.31-.9-.44-1.4-.35-.26.05-.51-.13-.56-.39-.05-.26.12-.51.39-.56.77-.14,1.55.06,2.16.54.57.45.92,1.09,1.01,1.81.06.49-.03.98-.23,1.42.94-.05,1.88.24,2.65.85.31.25.58.54.79.85,0-.33-.03-.65-.07-.99"/>
      <path class="cls-3" d="m28.93,15.55c-.12-1.24-.93-2.29-2.1-2.73-1.67-.63-3.53.2-4.19,1.85-.31.88.15,1.87,1.03,2.2.44.17.91.15,1.34-.04.43-.19.75-.54.92-.97.18-.47.15-1-.09-1.44-.12-.23-.04-.52.2-.65.23-.13.52-.04.65.2.37.69.42,1.5.14,2.23-.25.68-.76,1.21-1.42,1.51-.36.16-.73.24-1.11.24-.1,0-.21-.02-.31-.03.33.88.34,1.86,0,2.78-.14.37-.33.71-.57,1.02.31-.11.61-.23.92-.36,2.37-1.07,4.19-2.88,4.53-4.51.04-.19.15-.77.09-1.15,0-.01,0-.12-.01-.13"/>
    </g>
  </g>
</svg>