<?xml version="1.0" encoding="UTF-8"?>
<svg id="Layer_2" data-name="Layer 2" xmlns="http://www.w3.org/2000/svg" viewBox="0 0 31.69 31.69">
  <defs>
    <style>
      .cls-1 {
        fill: none;
      }

      .cls-2 {
        fill: #0071b5;
      }

      .cls-3 {
        fill: #f7941d;
      }

      .cls-4 {
        fill: #fff;
      }

      .cls-5 {
        fill: #ffc60b;
      }

      .cls-6 {
        fill: #b2d235;
      }

      .cls-7 {
        fill: #6dc065;
      }

      .cls-8 {
        fill: #27aae1;
      }
    </style>
  </defs>
  <g id="Layer_1-2" data-name="Layer 1">
    <circle class="cls-4" cx="15.84" cy="15.84" r="15.84"/>
    <g>
      <path class="cls-1" d="m15.8,12.3s.03.05.05.08c.02-.03.03-.05.05-.08-.02,0-.03,0-.05,0-.02,0-.03,0-.05,0Z"/>
      <path class="cls-1" d="m15.96,18.8s-.06-.09-.08-.14c-.03.05-.06.1-.09.15.06,0,.12,0,.17,0Z"/>
      <path class="cls-8" d="m15.8,12.3s.03,0,.05,0c.02,0,.03,0,.05,0,1.09-1.76,3.03-2.93,5.26-2.93.25,0,.5.03.75.06,1.1-1.34,1.76-3.06,1.76-4.92h-2.22c0,3.08-2.5,5.57-5.58,5.57s-5.58-2.49-5.58-5.57h-2.22c0,1.87.66,3.58,1.76,4.92.24-.03.49-.06.74-.06,2.22,0,4.17,1.17,5.26,2.93Z"/>
      <path class="cls-2" d="m15.96,18.8c-.06,0-.12,0-.17,0-1.09,1.75-3.03,2.91-5.24,2.91-.3,0-.58-.04-.87-.08-1.31,1.48-2.11,3.42-2.11,5.54h2.39c0-3.31,2.69-6,6.01-6s6.01,2.68,6.01,6h2.39c0-2.18-.84-4.16-2.2-5.65-.33.05-.67.09-1.02.09-2.18,0-4.09-1.13-5.19-2.83Z"/>
      <path class="cls-7" d="m14.97,15.45h0c.02-1.12.34-2.17.88-3.07-.02-.03-.03-.05-.05-.08-1.09-1.76-3.03-2.93-5.26-2.93-.25,0-.5.03-.74.06-2.61.31-4.72,2.23-5.29,4.74h1.82c.58-1.77,2.24-3.05,4.2-3.05,2.44,0,4.42,1.98,4.42,4.42,0-.01,0-.03,0-.04,0-.02,0-.03,0-.05Z"/>
      <path class="cls-3" d="m21.16,19.86c-2.43,0-4.39-1.95-4.42-4.37,0,.02,0,.03,0,.05h0c0,1.14-.31,2.2-.85,3.12.03.05.05.09.08.14,1.1,1.7,3.01,2.83,5.19,2.83.35,0,.68-.03,1.02-.09,2.46-.41,4.43-2.27,5-4.67h-1.83c-.59,1.74-2.24,3-4.19,3Z"/>
      <path class="cls-3" d="m14.97,15.49s0-.03,0-.05h0s0,.03,0,.05Z"/>
      <path class="cls-5" d="m15.79,18.8s.06-.1.09-.15c.54-.92.85-1.98.85-3.12h-1.76c0,2.44-1.98,4.42-4.42,4.42-1.98,0-3.66-1.3-4.22-3.09h-1.82c.55,2.5,2.61,4.41,5.17,4.78.28.04.57.08.87.08,2.21,0,4.15-1.17,5.24-2.91Z"/>
      <path class="cls-6" d="m16.73,15.54s0-.03,0-.05c.03-2.42,1.99-4.37,4.42-4.37,1.96,0,3.63,1.28,4.2,3.05h1.82c-.57-2.51-2.68-4.42-5.28-4.74-.25-.03-.49-.06-.75-.06-2.22,0-4.17,1.17-5.26,2.93-.02.03-.03.05-.05.08-.54.9-.86,1.95-.88,3.07,0,.02,0,.03,0,.05,0,.01,0,.03,0,.04,0,0,0,0,0,0h1.76Z"/>
    </g>
  </g>
</svg>